<?xml version="1.0" standalone="no"?>
<!DOCTYPE svg PUBLIC "-//W3C//DTD SVG 20010904//EN"
 "http://www.w3.org/TR/2001/REC-SVG-20010904/DTD/svg10.dtd">
<svg version="1.0" xmlns="http://www.w3.org/2000/svg"
 width="700.000000pt" height="700.000000pt" viewBox="0 0 700.000000 700.000000"
 preserveAspectRatio="xMidYMid meet">
<metadata>
Created by potrace 1.14, written by Peter Selinger 2001-2017
</metadata>
<g transform="translate(0.000000,700.000000) scale(0.100000,-0.100000)"
fill="#000000" stroke="none">
<path d="M3632 6779 c-72 -29 -73 -29 -127 -14 -53 16 -57 16 -164 -13 -80
-22 -121 -39 -153 -63 -24 -19 -45 -37 -48 -41 -4 -4 -50 -39 -104 -78 -98
-69 -100 -71 -171 -192 -40 -68 -89 -166 -110 -218 -21 -52 -55 -120 -75 -151
-38 -57 -80 -188 -80 -247 0 -17 -4 -33 -9 -36 -20 -13 -91 -13 -101 -1 -5 6
-23 12 -40 13 -30 1 -29 0 26 -45 48 -39 59 -44 75 -35 33 21 49 15 49 -18 0
-33 -15 -44 -73 -55 -55 -11 -33 -27 28 -22 l53 5 5 -41 c3 -23 3 -45 1 -49
-18 -30 -145 -70 -221 -71 -7 0 -13 -4 -13 -9 0 -4 11 -8 25 -8 14 0 27 -1 30
-2 2 0 50 -9 107 -18 l102 -18 70 24 c39 14 89 37 111 52 22 15 45 30 51 34 9
6 12 -12 12 -67 -1 -55 6 -93 25 -147 14 -40 39 -149 57 -243 18 -93 42 -203
55 -243 l23 -73 -32 6 c-267 42 -445 104 -614 211 -29 19 -56 34 -61 34 -5 0
-11 3 -13 8 -1 4 -28 25 -58 48 -225 167 -418 436 -509 710 -34 101 -35 108
-66 273 -3 18 -7 69 -10 113 -2 44 -6 82 -9 85 -3 3 -137 6 -298 6 l-293 0 1
-64 c5 -433 176 -896 463 -1252 82 -101 216 -234 316 -314 44 -34 86 -68 93
-74 86 -72 365 -217 523 -272 l94 -33 3 -1991 2 -1991 300 0 300 0 0 899 0
899 299 0 300 0 0 -897 0 -898 298 0 298 0 2 1785 c1 982 2 1786 2 1787 1 1
267 -264 591 -589 l591 -590 211 212 211 212 -649 650 c-899 900 -854 857
-995 928 -142 72 -250 93 -471 94 l-127 1 74 75 c41 41 88 94 105 118 72 100
124 241 113 306 -6 36 17 69 41 60 9 -3 27 12 48 40 18 25 36 45 40 46 4 0 19
-25 34 -55 31 -62 68 -95 78 -69 10 25 7 44 -7 44 -7 0 -27 29 -44 64 l-32 64
30 58 c16 33 41 78 55 102 19 31 27 60 29 105 1 34 7 73 12 86 7 16 6 43 -2
81 -9 45 -9 64 2 95 12 34 11 45 -2 78 -13 32 -13 42 -2 65 8 15 15 51 16 81
1 29 9 64 18 77 14 22 14 28 -7 80 -13 31 -51 90 -85 133 -35 42 -84 111 -110
152 -99 155 -119 181 -142 190 -45 17 -84 20 -121 9 -32 -10 -44 -8 -95 14
-32 14 -63 26 -70 25 -7 -1 -45 -14 -85 -30z"/>
</g>
</svg>
