<svg xmlns="http://www.w3.org/2000/svg" viewBox="0 0 1354.33 909.6"><defs><style>.cls-1{font-size:36px;font-family:AmericanTypewriter-Semibold, American Typewriter;font-weight:600;}.cls-2{letter-spacing:0.02em;}.cls-3{letter-spacing:0em;}.cls-4{letter-spacing:0.02em;}</style></defs><g id="Layer_2" data-name="Layer 2"><g id="Layer_1-2" data-name="Layer 1"><path d="M775.14,13.53,761.48.92A3.57,3.57,0,0,0,759.07,0H579.28a3.57,3.57,0,0,0-2.41.92L563.21,13.53a3,3,0,0,0-1,2.23V194.39a3.29,3.29,0,0,0,3.42,3.15h27.31a3.29,3.29,0,0,0,3.41-3.15v-9.46H742v9.46a3.29,3.29,0,0,0,3.41,3.15h27.31a3.29,3.29,0,0,0,3.42-3.15V15.76A3,3,0,0,0,775.14,13.53ZM620.62,6.3h93.31V37.83H620.62V6.3ZM742,44.13V153.41H596.35V44.13Zm27.31,147.1H748.83v-9.45a3.29,3.29,0,0,0-3.42-3.15H592.94a3.29,3.29,0,0,0-3.42,3.15v9.45H569V17.07L580.69,6.3h33.1V37.83H592.94A3.29,3.29,0,0,0,589.52,41V156.56a3.29,3.29,0,0,0,3.42,3.15H745.41a3.29,3.29,0,0,0,3.42-3.15V41a3.29,3.29,0,0,0-3.42-3.15H720.75V6.3h36.9l11.66,10.77Z"/><path d="M606.59,147.1H731.76a3.16,3.16,0,1,0,0-6.3H707.1V127.14a3.29,3.29,0,0,0-3.42-3.15H630.86a3.28,3.28,0,0,0-3.41,3.15V140.8H606.59a3.16,3.16,0,1,0,0,6.3Zm27.68-16.81h66V140.8h-66V130.29Z"/><path d="M644.51,75.65h5.69v9.46a3.29,3.29,0,0,0,3.42,3.15h10.24v13.66a3.29,3.29,0,0,0,3.41,3.15h36.41a3.16,3.16,0,1,0,0-6.3h-33V88.26h10.24a3.29,3.29,0,0,0,3.41-3.15V75.65H690a3.28,3.28,0,0,0,3.41-3.15V53.59a3.42,3.42,0,0,0-6.82,0V69.35H647.93V53.59a3.43,3.43,0,0,0-6.83,0V72.5A3.29,3.29,0,0,0,644.51,75.65Zm12.52,0h20.48V82H657Z"/><path d="M696.86,12.61c-5.65,0-10.24,4.24-10.24,9.46s4.59,9.45,10.24,9.45,10.24-4.24,10.24-9.45S702.5,12.61,696.86,12.61Zm0,12.61a3.3,3.3,0,0,1-3.42-3.15,3.43,3.43,0,0,1,6.83,0A3.3,3.3,0,0,1,696.86,25.22Z"/><path d="M630.86,117.68h72.82a3.16,3.16,0,1,0,0-6.3H630.86a3.16,3.16,0,1,0,0,6.3Z"/></g><g id="Layer_2-2" data-name="Layer 2"><path d="M198.17,212.84l.11-11.87a41.36,41.36,0,0,1-10.06-3.91l-9,8.35A54.2,54.2,0,0,0,198.17,212.84Z"/><path d="M169.27,173.45l-12.53-.12a48.43,48.43,0,0,0,8,18.33l8.9-8.29A37.2,37.2,0,0,1,169.27,173.45Z"/><path d="M218.76,201l-.11,11.9a54.15,54.15,0,0,0,18.64-7.16l-8.78-8.5A41.28,41.28,0,0,1,218.76,201Z"/><path d="M251.94,192.14a48.51,48.51,0,0,0,8-17.5l-12.55-.12a37.52,37.52,0,0,1-4.22,9.14Z"/><path d="M250.76,62.42a9.72,9.72,0,0,1,13.23.12l1.38,1.33c4.25,4.11,7.79,12.45,7.73,18.21v1.15c-.07,7.33,4.12,17.17,9.53,22.41l14.24,13.78,4.45-4.15-14.24-13.78c-4.25-4.11-7.8-12.44-7.74-18.2V82.13c.07-7.33-4.12-17.17-9.52-22.4l-1.38-1.34a16.2,16.2,0,0,0-22.05-.2l-31.08,29q4,.28,7.89.95Z"/><path d="M199.34,126.23l.11-11.85a54.35,54.35,0,0,0-19.77,7.35l8.78,8.5A41.15,41.15,0,0,1,199.34,126.23Z"/><path d="M165,135.31a48.6,48.6,0,0,0-8.28,18.57l12.5.12a36.75,36.75,0,0,1,4.54-10.21Z"/><path d="M208.34,238.67c43.27.41,78.67-32.57,79.06-73.67S253,90.26,209.74,89.86s-78.67,32.57-79.06,73.66S165.06,238.26,208.34,238.67Zm-63.1-68.41,26.52.25a34.6,34.6,0,0,0,5.89,13.29l-19.16,17.85A58.65,58.65,0,0,1,145.24,170.26Zm55.93,54.41a65.26,65.26,0,0,1-32.74-13.32l19.35-18a38.44,38.44,0,0,0,13.64,5.29Zm14.24.19.25-26.25A38.32,38.32,0,0,0,229,193.47l19.46,18.84A65.45,65.45,0,0,1,215.41,224.86Zm43.25-22L239.2,184A34.55,34.55,0,0,0,245,171.53l27.68.27A58.73,58.73,0,0,1,258.66,202.87Zm14.18-44.6L245.39,158a34.12,34.12,0,0,0-5.18-13.08l19.38-18.05A58.65,58.65,0,0,1,272.84,158.27ZM230.49,135a38.23,38.23,0,0,0-13.82-6l.24-25.21a65.35,65.35,0,0,1,32.74,13.32Zm3.18,28.74c-.13,13-11.29,23.37-24.95,23.24s-24.62-10.74-24.49-23.7,11.29-23.37,24.94-23.25S233.79,150.82,233.67,163.78Zm-31-60.11-.23,25A38.38,38.38,0,0,0,188,134l-18.35-17.75A65.38,65.38,0,0,1,202.66,103.67Zm-43.24,22,18.35,17.76a34.38,34.38,0,0,0-6,13.56l-26.32-.25A58.76,58.76,0,0,1,159.42,125.66Z"/><path d="M248,155.07l12.48.12a48.49,48.49,0,0,0-7.34-18.12l-9,8.37A36.7,36.7,0,0,1,248,155.07Z"/><path d="M199.49,110.19l0-3.15a61.44,61.44,0,0,0-7.16,1.49l-7.84,7.31a57.55,57.55,0,0,1,13.37-4.16Z"/><path d="M230.12,131.22l8.89-8.28a54.15,54.15,0,0,0-19.08-8.08l-.12,11.93A40.66,40.66,0,0,1,230.12,131.22Z"/><ellipse cx="209.56" cy="163.55" rx="11.1" ry="11.69" transform="translate(44.04 371.56) rotate(-89.46)"/></g><g id="Layer_3" data-name="Layer 3"><path d="M764.64,466.81l-15.7-35.12a6,6,0,0,0-7.8-3l-24.89,10.6a5.9,5.9,0,0,0-3.16,3.2,5.75,5.75,0,0,0,.09,4.46l7.6,17H710.9l.1-5.08a5.79,5.79,0,0,0-3.31-5.33,6,6,0,0,0-6.33.68l-33.77,26.48a5.75,5.75,0,0,0,0,9.08l33.77,26.47a6,6,0,0,0,3.71,1.28,6.12,6.12,0,0,0,2.63-.6,5.82,5.82,0,0,0,3.3-5.34l-.09-4.06h29.21a18.82,18.82,0,0,0,18-13.29l6.7-22.73a5.74,5.74,0,0,0,.28-1.72h0v-.62A5.72,5.72,0,0,0,764.64,466.81Zm-24.2-25.14,10,22.29H733.74l-7.3-16.33ZM746.76,491a6.93,6.93,0,0,1-6.64,4.89H704.85a6,6,0,0,0-4.24,1.75,5.73,5.73,0,0,0-1.34,2.07L680.8,485.25,699,471a5.8,5.8,0,0,0,1.57,2.9,6,6,0,0,0,4.24,1.74h46.46Z"/><path d="M679.87,395.4l-4.4,2.68a5.76,5.76,0,0,0-2.76,5.62,5.83,5.83,0,0,0,4,4.83l41,13.33a6,6,0,0,0,5.1-.64,5.79,5.79,0,0,0,2.67-4.3l4.28-42.17a5.76,5.76,0,0,0-2.87-5.57,6,6,0,0,0-6.38.19l-3.42,2.28-15.91-24a19,19,0,0,0-21.2-7.58L657,346.94a6.18,6.18,0,0,0-1.59.69l0,0-.54.34a5.9,5.9,0,0,0-1.73,1.68l-21.52,32a5.74,5.74,0,0,0,1.68,8l22.63,14.69a6,6,0,0,0,4.46.84,5.89,5.89,0,0,0,3.77-2.49l10.42-15.51Zm-22.44-3.88-12.73-8.26,13.66-20.32,9.07,13.69Zm26.08-40.33a7,7,0,0,1,7.8,2.79l19.21,29a5.91,5.91,0,0,0,3.8,2.53,6,6,0,0,0,2.5,0l-2.34,23.07-22.16-7.2a5.81,5.81,0,0,0,1.62-2.87,5.73,5.73,0,0,0-.82-4.43l-25.3-38.18Z"/><path d="M650.14,465.23l-20.8-.09L634,454.81l5.37,2.46a6.06,6.06,0,0,0,6.32-.81,5.76,5.76,0,0,0,1.93-5.95l-11.76-43.69a5.85,5.85,0,0,0-3.34-3.83,6,6,0,0,0-5.14.16L586.46,424a5.77,5.77,0,0,0,.45,10.53l4.45,1.82-12.78,28.26a19.06,19.06,0,0,0,5.33,22.52l19.73,16.22a5.66,5.66,0,0,0,1.41.9l.11.05.62.27a5.91,5.91,0,0,0,2.38.5l41.72.18h0a5.87,5.87,0,0,0,5.93-5.77l.21-28.35a5.74,5.74,0,0,0-1.71-4.13A6,6,0,0,0,650.14,465.23Zm-44.81,24.29-13.79-11.34a7.54,7.54,0,0,1-2.11-8.9l15.24-33.69a5.7,5.7,0,0,0,.09-4.51,6,6,0,0,0-1.81-2.4l23.33-11.87,6.65,24.71a6,6,0,0,0-4,.06,5.93,5.93,0,0,0-3.34,3.09Zm38.69,4-27.48-.11,7.55-16.69,20,.09Z"/></g><g id="Layer_5" data-name="Layer 5"><path d="M364.75,397.83a1.42,1.42,0,0,1,.19.41,72.44,72.44,0,0,1,25.23-25.13,2.55,2.55,0,0,1-.9-.28l-19.66-13.75a1.23,1.23,0,0,0-1.52.14l-16.53,17.14a1.33,1.33,0,0,0-.13,1.57Z"/><path d="M425.85,363.32a69.93,69.93,0,0,1,17.28,2.17,1.59,1.59,0,0,1-.56-1.08l-4.5-24.2a1.57,1.57,0,0,0-1.25-.71l-23.34.07a1.32,1.32,0,0,0-1.24,1l-4.35,24.23a2.42,2.42,0,0,1-.67,1.06A69.53,69.53,0,0,1,425.85,363.32Z"/><path d="M489.81,436c0-36.17-28.87-65.37-64.1-65.37s-64.1,29.2-64.1,65.37c0,24.36,13.82,47.14,34.82,58a3.32,3.32,0,0,0,4.56-1.86l10.22-28.48a3.46,3.46,0,0,0-1.38-4.13,28.29,28.29,0,0,1-12.57-23.92c0-15.95,12.84-28.91,28.45-28.91s28.46,13,28.46,28.91a28.29,28.29,0,0,1-12.57,23.92,3.46,3.46,0,0,0-1.38,4.13l10.22,28.48a3.31,3.31,0,0,0,4.56,1.86C476,483.09,489.81,460.59,489.81,436Z"/><path d="M486,397l13.11-19.84a1.35,1.35,0,0,0-.14-1.57l-16.64-17a1.22,1.22,0,0,0-1.52-.14l-19.57,13.87a1.78,1.78,0,0,1-.64.24A72.31,72.31,0,0,1,486,397Z"/><path d="M487.09,473a72.5,72.5,0,0,1-23.88,24.87.81.81,0,0,1,.21.1l18,12.62a1.23,1.23,0,0,0,1.52-.15l16.53-17.14a1.33,1.33,0,0,0,.13-1.57Z"/><path d="M356.64,453.16A73,73,0,0,1,354.57,436a73.92,73.92,0,0,1,2.3-18.35.8.8,0,0,1-.21,0L334,422.13a1.38,1.38,0,0,0-1,1.29l.07,24.07a1.36,1.36,0,0,0,1,1.28l22.12,4.2A1.43,1.43,0,0,1,356.64,453.16Z"/><path d="M518,422.28a2.38,2.38,0,0,0-1.25-1l-22.11-4.23a74,74,0,0,1,2.46,18.9,73,73,0,0,1-1.78,16l21.79-4.28a1.35,1.35,0,0,0,1-1.28Z"/><path d="M364.67,473a2.67,2.67,0,0,1-.24.74l-12.51,19a1.32,1.32,0,0,0,.15,1.56l16.63,17a1.22,1.22,0,0,0,1.52.14l17.92-12.73a1.7,1.7,0,0,1,1.65,0l8,4.39a.88.88,0,0,0,1.07-.14A71.13,71.13,0,0,1,364.67,473Z"/></g><g id="Layer_8" data-name="Layer 8"><path d="M1299.39,563.06l-24.28-9.92-15.52-33.24,15.26,21.16V527.32c0-11-8.53-20-19-20h-8.13c-10.53,0-19.06,8.94-19.06,20v70l-7.42,83.93a11.74,11.74,0,0,0,10.25,12.94,9.69,9.69,0,0,0,1.07,0,11.56,11.56,0,0,0,11.28-10.8l6.38-72h3.21l6.37,72a11.57,11.57,0,0,0,11.29,10.8,9.51,9.51,0,0,0,1.06,0,11.75,11.75,0,0,0,10.26-12.94l-7.51-84.81V582.83L1262,577.6l-2.44-1a11.59,11.59,0,0,1-6.68-7.8l-10.34-40.29,17.14,36.81a9.62,9.62,0,0,0,5.07,4.88l27.72,11.32a9.1,9.1,0,0,0,3.44.69,9.47,9.47,0,0,0,8.81-6.32A10.05,10.05,0,0,0,1299.39,563.06Z"/><path d="M1251.74,502.9c12.21,0,22.12-10.37,22.12-23.18s-9.91-23.18-22.12-23.18-22.14,10.37-22.14,23.18S1239.51,502.9,1251.74,502.9Z"/><path d="M1352.55,616.23a6.67,6.67,0,0,0-5-2.29H1298a6.67,6.67,0,0,0-5,2.29,7.35,7.35,0,0,0-1.76,5.41l5.28,65.44a6.93,6.93,0,0,0,6.76,6.51h39a6.92,6.92,0,0,0,6.76-6.51l5.28-65.44A7.35,7.35,0,0,0,1352.55,616.23Z"/><path d="M1312.72,603.21a5.35,5.35,0,0,0,6.74.47l7.63-5.35a5.8,5.8,0,0,0,2.26-3.3l1-3.66a6.11,6.11,0,0,0-.65-4.64,5.59,5.59,0,0,0-3.72-2.61l-8.35-1.56a5.4,5.4,0,0,0-5.44,2.29l-4.58,6.57a6,6,0,0,0,.81,7.78Z"/></g><g id="Layer_6" data-name="Layer 6"><path d="M115.46,595.82v1a6.29,6.29,0,0,0,6.59,6.16l6.6-.12a6.62,6.62,0,0,0,6.6-6.42v-1c21.55-4.81,37.43-23.35,37.46-44.79,0-24.85-21.15-44.67-47.23-44.17s-47.32,21.12-47.36,46C78.09,573.89,93.93,591.83,115.46,595.82Zm0-19.63a25.81,25.81,0,0,1-17.56-24.12c0-14.45,12.37-26.44,27.53-26.72s27.49,11.23,27.47,25.68c0,10.87-7.23,20.73-17.64,24.78V568.9a20.33,20.33,0,0,0,11-17.75c0-11-9.35-19.73-20.87-19.51S104.54,541,104.52,552a19.34,19.34,0,0,0,11,17.32Zm13.17,20.37-6.59.13,0-25.41a22.51,22.51,0,0,0,3.3.19,21.2,21.2,0,0,0,3.3-.32C128.69,573.2,128.66,595.72,128.65,596.56Zm-3.25-31.38c-7.89.15-14.29-5.84-14.28-13.36s6.43-13.75,14.32-13.9,14.29,5.85,14.28,13.36S133.28,565,125.4,565.18Zm.07-52.41c22.44-.43,40.67,16.62,40.64,38,0,17.78-13,33.59-30.85,38.2v-6.52c14.32-4.43,24.22-17.23,24.24-31.56,0-17.91-15.25-32.2-34-31.84S91.35,534.28,91.32,552.2c0,14.31,9.84,26.75,24.16,30.63v6.53c-17.8-3.94-30.77-19.25-30.75-37C84.75,530.94,103,513.19,125.47,512.77Z"/></g><g id="Layer_10" data-name="Layer 10"><path d="M125.37,566.8a5.81,5.81,0,0,0-5.57,5.89V653a17.15,17.15,0,0,1-17.11,17.18H73.86A17.15,17.15,0,0,1,56.75,653V634.82A28,28,0,0,0,79,607.33v-19a7.39,7.39,0,0,0-7.38-7.41h-.37s0,0,0,0V560.29a5.7,5.7,0,0,0-5.69-5.71h-29a5.7,5.7,0,0,0-5.69,5.71v20.6h-.37a7.39,7.39,0,0,0-7.38,7.41v19a28,28,0,0,0,22.28,27.49V653a28.5,28.5,0,0,0,28.44,28.56h28.83A28.51,28.51,0,0,0,131.14,653V572.49A5.69,5.69,0,0,0,125.37,566.8ZM49.46,595.94H66.68v14.39H49.46Z"/></g><g id="Layer_7" data-name="Layer 7"><path d="M689.05,700.19V660H599.39v40.19H564.31V847.54H724.14V700.19Zm-78-26.79h66.27v26.79H611.09ZM712.44,834.14H576V758.23h29.23c-.24.38-.49.77-.77,1.19a27.55,27.55,0,0,0,0,31.85c1.76,2.69,2.73,4.17,2.73,7.89s-1,5.21-2.73,7.89A26.22,26.22,0,0,0,599.39,823h11.7c0-3.72,1-5.2,2.73-7.89a27.59,27.59,0,0,0,0-31.85c-1.76-2.69-2.73-4.17-2.73-7.89s1-5.2,2.73-7.89a28,28,0,0,0,4.31-9.23h10.49c-.24.38-.49.77-.77,1.19a27.55,27.55,0,0,0,0,31.85c1.76,2.69,2.73,4.17,2.73,7.89s-1,5.21-2.73,7.89A26.22,26.22,0,0,0,622.78,823h11.7c0-3.72,1-5.2,2.72-7.89a27.55,27.55,0,0,0,0-31.85c-1.76-2.69-2.72-4.17-2.72-7.89s1-5.2,2.72-7.89a27.81,27.81,0,0,0,4.32-9.23H652l-.77,1.19a27.55,27.55,0,0,0,0,31.85C653,794,654,795.44,654,799.16s-1,5.2-2.73,7.89A26.22,26.22,0,0,0,646.17,823h11.69c0-3.72,1-5.2,2.73-7.89a27.55,27.55,0,0,0,0-31.85c-1.76-2.69-2.73-4.17-2.73-7.89s1-5.2,2.73-7.89a27.81,27.81,0,0,0,4.32-9.23h10.48c-.23.38-.49.77-.76,1.19a27.55,27.55,0,0,0,0,31.85c1.76,2.69,2.72,4.17,2.72,7.89s-1,5.2-2.72,7.89A26.22,26.22,0,0,0,669.56,823h11.69c0-3.72,1-5.2,2.73-7.89a27.55,27.55,0,0,0,0-31.85c-1.76-2.69-2.73-4.17-2.73-7.89s1-5.2,2.73-7.89a27.81,27.81,0,0,0,4.32-9.23h24.14v75.91Zm0-89.3H576V713.58H712.44v31.26Z"/><ellipse cx="687.51" cy="716.6" rx="10.43" ry="10.79"/><ellipse cx="724.02" cy="716.6" rx="10.43" ry="10.79"/></g><g id="writing"><text class="cls-1" transform="translate(383.77 557.3)">open</text><text class="cls-1" transform="translate(604.13 565.58)">circular</text><text class="cls-1" transform="translate(869.31 565.58)">local</text><text class="cls-1" transform="translate(574.6 241.64)">production</text><text class="cls-1" transform="translate(0 729.64)">ext<tspan class="cls-2" x="56.34" y="0">r</tspan><tspan class="cls-3" x="74.77" y="0">usion</tspan></text><text class="cls-1" transform="translate(554.12 895.64)">shredding</text><text class="cls-1" transform="translate(1140.79 294.73)">object</text><text class="cls-1" transform="translate(1219.56 750.4)">so<tspan class="cls-4" x="37.37" y="0">r</tspan><tspan x="55.73" y="0">ting</tspan></text><text class="cls-1" transform="translate(146.73 279.98)">testing</text><path d="M994.1,81.12,974.7,46.53a2.24,2.24,0,0,0-3-.88,2.06,2.06,0,0,0-.87,2.86L990.28,83.1a2.25,2.25,0,0,0,3,.88A2.06,2.06,0,0,0,994.1,81.12Z"/><path d="M971,40l-1-1.75a2.24,2.24,0,0,0-3-.88,2.06,2.06,0,0,0-.87,2.86l1,1.75a2.21,2.21,0,0,0,1.42,1.07,2.25,2.25,0,0,0,1.54-.19A2.06,2.06,0,0,0,971,40Z"/><path d="M1003.46,83.36,969.57,23a2.23,2.23,0,0,0-1.42-1.07L940.3,15.23a2.18,2.18,0,0,0-2.23.75,2,2,0,0,0-.17,2.29l33,58.74-56,37.5a2.07,2.07,0,0,0-.88,2.12,2.2,2.2,0,0,0,1.65,1.68L943.52,125a2.2,2.2,0,0,0,1.75-.3l57.53-38.57A2.05,2.05,0,0,0,1003.46,83.36Zm-59.91,37.27-22.15-5.29L975,79.44a2.06,2.06,0,0,0,.65-2.74L944.07,20.47l22.14,5.29,32.49,57.9Z"/><path d="M1291.85,385.3l22.33-32.78a2.24,2.24,0,0,0-.53-3,2.06,2.06,0,0,0-2.94.5l-22.33,32.78a2.19,2.19,0,0,0-.32,1.75,2.15,2.15,0,0,0,.85,1.29A2.05,2.05,0,0,0,1291.85,385.3Z"/><path d="M1318.39,346.35l1.13-1.67a2.24,2.24,0,0,0-.53-3,2.07,2.07,0,0,0-3,.5l-1.13,1.66a2.24,2.24,0,0,0-.32,1.75,2.26,2.26,0,0,0,.85,1.3A2.07,2.07,0,0,0,1318.39,346.35Z"/><path d="M1294,394.67l39-57.24a2.24,2.24,0,0,0,.32-1.75l-6.45-27.9a2.17,2.17,0,0,0-1.66-1.66,2.06,2.06,0,0,0-2.13.87l-37.92,55.66-58.49-33.39a2,2,0,0,0-2.29.16,2.19,2.19,0,0,0-.77,2.22l6.45,27.9a2.22,2.22,0,0,0,1,1.43l60.16,34.34A2.07,2.07,0,0,0,1294,394.67Zm-60.06-37-5.13-22.18,56,32a2.06,2.06,0,0,0,2.74-.63l36.3-53.29,5.12,22.19-37.37,54.87Z"/></g><g id="Arrows"><path d="M986.13,751.92l34.47,19.62a2.25,2.25,0,0,0,3-.78,2.06,2.06,0,0,0-.74-2.89l-34.47-19.62a2.25,2.25,0,0,0-3,.78A2.05,2.05,0,0,0,986.13,751.92Z"/><path d="M1027.1,775.23l1.75,1a2.24,2.24,0,0,0,3-.77,2.07,2.07,0,0,0-.74-2.9l-1.74-1a2.21,2.21,0,0,0-1.77-.18,2.18,2.18,0,0,0-1.23,1A2.06,2.06,0,0,0,1027.1,775.23Z"/><path d="M977,754.83l60.2,34.26a2.23,2.23,0,0,0,1.77.18l27.28-8.67a2.17,2.17,0,0,0,1.52-1.79,2.07,2.07,0,0,0-1-2.06l-58.54-33.31,28.58-61a2.06,2.06,0,0,0-.34-2.27,2.19,2.19,0,0,0-2.28-.59l-27.29,8.67a2.25,2.25,0,0,0-1.34,1.17l-29.38,62.72A2,2,0,0,0,977,754.83ZM1009.05,692l21.71-6.89-27.36,58.38a2.07,2.07,0,0,0,.85,2.68l56,31.89-21.7,6.9-57.7-32.84Z"/><path d="M330.8,743.08,344,780.47a2.25,2.25,0,0,0,2.77,1.37,2.07,2.07,0,0,0,1.34-2.67l-13.23-37.39a2.24,2.24,0,0,0-2.77-1.37A2.07,2.07,0,0,0,330.8,743.08Z"/><path d="M346.52,787.51l.68,1.9a2.23,2.23,0,0,0,2.76,1.37,2.05,2.05,0,0,0,1.34-2.67l-.67-1.89a2.24,2.24,0,0,0-1.22-1.3,2.28,2.28,0,0,0-1.55-.08A2.07,2.07,0,0,0,346.52,787.51Z"/><path d="M322,739.28l23.1,65.3a2.24,2.24,0,0,0,1.22,1.29l26.31,11.3a2.18,2.18,0,0,0,2.32-.36,2.07,2.07,0,0,0,.56-2.23L353,751.09l61.52-27.42a2.08,2.08,0,0,0,1.23-1.94,2.21,2.21,0,0,0-1.34-1.94l-26.31-11.3a2.25,2.25,0,0,0-1.78,0l-63.26,28.2A2,2,0,0,0,322,739.28Zm65.38-26.52,20.93,9L349.38,748a2.06,2.06,0,0,0-1.11,2.58l21.51,60.79-20.92-9-22.15-62.59Z"/><path d="M151.77,340.21l-38.06,11.15a2.25,2.25,0,0,0-1.53,2.69,2.08,2.08,0,0,0,2.6,1.49l38.06-11.15a2.23,2.23,0,0,0,1.36-1.15,2.21,2.21,0,0,0,.16-1.54A2.06,2.06,0,0,0,151.77,340.21Z"/><path d="M106.54,353.47l-1.93.56a2.25,2.25,0,0,0-1.53,2.69,2.06,2.06,0,0,0,2.59,1.48l1.93-.56a2.25,2.25,0,0,0,1.53-2.69A2.06,2.06,0,0,0,106.54,353.47Z"/><path d="M156.05,331.6,89.58,351.07a2.25,2.25,0,0,0-1.36,1.15L75.49,377.86a2.18,2.18,0,0,0,.23,2.35,2,2,0,0,0,2.19.68L142.55,362l24,62.94a2,2,0,0,0,1.87,1.33,2.18,2.18,0,0,0,2-1.23l12.74-25.64a2.25,2.25,0,0,0,.09-1.78l-24.68-64.72A2,2,0,0,0,156.05,331.6Zm22.88,66.75L168.8,418.74l-23-60.24a2,2,0,0,0-2.51-1.25L81.44,375.37,91.56,355l63.72-18.67Z"/><path d="M444.57,80.67,411.94,58.12a2.23,2.23,0,0,0-3.05.51,2.06,2.06,0,0,0,.48,2.94L442,84.13a2.24,2.24,0,0,0,3.05-.51A2.07,2.07,0,0,0,444.57,80.67Z"/><path d="M405.8,53.87l-1.66-1.15a2.25,2.25,0,0,0-3.05.51,2.07,2.07,0,0,0,.48,3l1.66,1.14a2.18,2.18,0,0,0,1.74.34,2.27,2.27,0,0,0,1.31-.84A2.07,2.07,0,0,0,405.8,53.87Z"/><path d="M454,78.57,397,39.18a2.29,2.29,0,0,0-1.75-.33L367.29,45.1a2.2,2.2,0,0,0-1.67,1.66,2,2,0,0,0,.85,2.13l55.4,38.3-33.79,58.26a2,2,0,0,0,.14,2.29,2.2,2.2,0,0,0,2.22.79l27.94-6.26a2.18,2.18,0,0,0,1.43-1l34.76-59.92A2.06,2.06,0,0,0,454,78.57Zm-37.45,59.8-22.22,5,32.35-55.77a2.07,2.07,0,0,0-.62-2.75L373,48.16l22.22-5,54.61,37.75Z"/></g><g id="Layer_9" data-name="Layer 9"><path d="M1264.27,131.29l-70.76-37.93a4,4,0,0,0-3.73,0L1119,131.29a3.43,3.43,0,0,0-1.86,3v75.85a3.44,3.44,0,0,0,1.86,3l70.76,37.92a3.94,3.94,0,0,0,3.73,0l70.76-37.92a3.45,3.45,0,0,0,1.87-3V134.29A3.46,3.46,0,0,0,1264.27,131.29ZM1258.66,203l-2.41-1.29a3.89,3.89,0,0,0-5.1,1.27,3.33,3.33,0,0,0,1.37,4.73l3.44,1.85-60.58,32.48V176.65h.14a3.8,3.8,0,0,0,3.24-1.73,3.27,3.27,0,0,0,.35-2.71l59.55-31.92Zm-126.52,0a3.89,3.89,0,0,0-5.1-1.27l-2.41,1.29V140.3l59.55,31.92a3.27,3.27,0,0,0,.35,2.71,3.8,3.8,0,0,0,3.24,1.73h.14v65.41l-60.58-32.47,3.44-1.85a3.33,3.33,0,0,0,1.37-4.73Zm59.51-95.69a3.6,3.6,0,0,0,3.73-3.47v-1.48l59.55,31.92-59.63,32a3.8,3.8,0,0,0-7.31,0l-59.63-32,59.55-31.92v1.48A3.61,3.61,0,0,0,1191.65,107.32Z"/><path d="M1219.76,190.18l6.66,3.58a4,4,0,0,0,1.86.46,3.8,3.8,0,0,0,3.24-1.73,3.34,3.34,0,0,0-1.37-4.74l-6.66-3.57a3.89,3.89,0,0,0-5.1,1.27A3.33,3.33,0,0,0,1219.76,190.18Z"/><path d="M1203.38,181.4,1210,185a3.89,3.89,0,0,0,1.86.47,3.8,3.8,0,0,0,3.24-1.73,3.34,3.34,0,0,0-1.37-4.74l-6.66-3.57a3.89,3.89,0,0,0-5.1,1.27,3.33,3.33,0,0,0,1.37,4.73Z"/><path d="M1236.14,199l6.66,3.58a4,4,0,0,0,1.86.46,3.8,3.8,0,0,0,3.24-1.73,3.34,3.34,0,0,0-1.37-4.74l-6.66-3.57a3.89,3.89,0,0,0-5.1,1.27A3.33,3.33,0,0,0,1236.14,199Z"/><path d="M1171.39,185.44a4,4,0,0,0,1.86-.46l6.66-3.58a3.33,3.33,0,0,0,1.37-4.73,3.89,3.89,0,0,0-5.1-1.27l-6.66,3.57a3.34,3.34,0,0,0-1.37,4.74A3.8,3.8,0,0,0,1171.39,185.44Z"/><path d="M1138.63,203a4,4,0,0,0,1.86-.46l6.66-3.58a3.33,3.33,0,0,0,1.37-4.73,3.89,3.89,0,0,0-5.1-1.27l-6.66,3.57a3.34,3.34,0,0,0-1.37,4.74A3.8,3.8,0,0,0,1138.63,203Z"/><path d="M1155,194.22a4,4,0,0,0,1.86-.46l6.66-3.58a3.33,3.33,0,0,0,1.37-4.73,3.89,3.89,0,0,0-5.1-1.27l-6.66,3.57a3.34,3.34,0,0,0-1.37,4.74A3.8,3.8,0,0,0,1155,194.22Z"/><path d="M1187.91,121.41a3.75,3.75,0,0,0,7.47,0v-7.14a3.75,3.75,0,0,0-7.47,0Z"/><path d="M1191.65,128.36a3.61,3.61,0,0,0-3.74,3.47V139a3.75,3.75,0,0,0,7.47,0v-7.14A3.6,3.6,0,0,0,1191.65,128.36Z"/><path d="M1191.65,145.92a3.61,3.61,0,0,0-3.74,3.47v7.14a3.75,3.75,0,0,0,7.47,0v-7.14A3.6,3.6,0,0,0,1191.65,145.92Z"/></g><g id="Layer_4" data-name="Layer 4"><path d="M988,506.2,963.4,406.64a4.74,4.74,0,0,0-4.51-3.73h-18.1c3.52-10.09,5.24-17.49,5.24-22.5,0-22-16.56-39.87-36.91-39.87s-36.92,17.88-36.92,39.87c0,5,1.73,12.41,5.24,22.5h-18.1a4.75,4.75,0,0,0-4.51,3.73L830.26,506.2c-.79,3.2,1.44,6.34,4.5,6.34H983.47C986.53,512.54,988.76,509.4,988,506.2ZM909.12,350.61c15.21,0,27.58,13.37,27.58,29.8,0,14.31-21.44,59.35-27.58,71.95-6.13-12.58-27.59-57.64-27.59-71.95C881.53,364,893.9,350.61,909.12,350.61ZM905,465.46a4.51,4.51,0,0,0,8.2-.06c4.19-8.27,10.47-21.39,15.43-32.51h11.48l11.42,49.66H866.67l11.43-49.66h11.47C894.49,443.92,901.13,457.8,905,465.46Zm-64.2,37L862.92,413h18.26c1.27,3.22,2.66,6.61,4,9.84H874.45a4.73,4.73,0,0,0-4.52,3.82l-13.75,59.73a5,5,0,0,0,4.53,6.25h96.82c3,0,5.25-3.08,4.52-6.25L948.3,426.64a4.73,4.73,0,0,0-4.52-3.82H933c1.32-3.12,2.71-6.5,4-9.84h18.26l22.09,89.49Z"/><path d="M927.91,380.41c0-11.2-8.43-20.3-18.79-20.3s-18.8,9.1-18.8,20.3,8.43,20.3,18.8,20.3S927.91,391.6,927.91,380.41Zm-28.26,0c0-5.64,4.24-10.23,9.47-10.23s9.47,4.59,9.47,10.23-4.25,10.23-9.47,10.23S899.65,386.05,899.65,380.41Z"/></g></g></svg>