<svg viewBox="0 0 1354.33 909.6" xmlns="http://www.w3.org/2000/svg"><path d="m775.14 13.53-13.66-12.61a3.57 3.57 0 0 0 -2.41-.92h-179.79a3.57 3.57 0 0 0 -2.41.92l-13.66 12.61a3 3 0 0 0 -1 2.23v178.63a3.29 3.29 0 0 0 3.42 3.15h27.31a3.29 3.29 0 0 0 3.41-3.15v-9.46h145.65v9.46a3.29 3.29 0 0 0 3.41 3.15h27.31a3.29 3.29 0 0 0 3.42-3.15v-178.63a3 3 0 0 0 -1-2.23zm-154.52-7.23h93.31v31.53h-93.31zm121.38 37.83v109.28h-145.65v-109.28zm27.31 147.1h-20.48v-9.45a3.29 3.29 0 0 0 -3.42-3.15h-152.47a3.29 3.29 0 0 0 -3.42 3.15v9.45h-20.52v-174.16l11.69-10.77h33.1v31.53h-20.85a3.29 3.29 0 0 0 -3.42 3.17v115.56a3.29 3.29 0 0 0 3.42 3.15h152.47a3.29 3.29 0 0 0 3.42-3.15v-115.56a3.29 3.29 0 0 0 -3.42-3.15h-24.66v-31.55h36.9l11.66 10.77z"/><path d="m606.59 147.1h125.17a3.16 3.16 0 1 0 0-6.3h-24.66v-13.66a3.29 3.29 0 0 0 -3.42-3.15h-72.82a3.28 3.28 0 0 0 -3.41 3.15v13.66h-20.86a3.16 3.16 0 1 0 0 6.3zm27.68-16.81h66v10.51h-66z"/><path d="m644.51 75.65h5.69v9.46a3.29 3.29 0 0 0 3.42 3.15h10.24v13.66a3.29 3.29 0 0 0 3.41 3.15h36.41a3.16 3.16 0 1 0 0-6.3h-33v-10.51h10.24a3.29 3.29 0 0 0 3.41-3.15v-9.46h5.67a3.28 3.28 0 0 0 3.41-3.15v-18.91a3.42 3.42 0 0 0 -6.82 0v15.76h-38.66v-15.76a3.43 3.43 0 0 0 -6.83 0v18.91a3.29 3.29 0 0 0 3.41 3.15zm12.52 0h20.48v6.35h-20.51z"/><path d="m696.86 12.61c-5.65 0-10.24 4.24-10.24 9.46s4.59 9.45 10.24 9.45 10.24-4.24 10.24-9.45-4.6-9.46-10.24-9.46zm0 12.61a3.3 3.3 0 0 1 -3.42-3.15 3.43 3.43 0 0 1 6.83 0 3.3 3.3 0 0 1 -3.41 3.15z"/><path d="m630.86 117.68h72.82a3.16 3.16 0 1 0 0-6.3h-72.82a3.16 3.16 0 1 0 0 6.3z"/><path d="m198.17 212.84.11-11.87a41.36 41.36 0 0 1 -10.06-3.91l-9 8.35a54.2 54.2 0 0 0 18.95 7.43z"/><path d="m169.27 173.45-12.53-.12a48.43 48.43 0 0 0 8 18.33l8.9-8.29a37.2 37.2 0 0 1 -4.37-9.92z"/><path d="m218.76 201-.11 11.9a54.15 54.15 0 0 0 18.64-7.16l-8.78-8.5a41.28 41.28 0 0 1 -9.75 3.76z"/><path d="m251.94 192.14a48.51 48.51 0 0 0 8-17.5l-12.55-.12a37.52 37.52 0 0 1 -4.22 9.14z"/><path d="m250.76 62.42a9.72 9.72 0 0 1 13.23.12l1.38 1.33c4.25 4.11 7.79 12.45 7.73 18.21v1.15c-.07 7.33 4.12 17.17 9.53 22.41l14.24 13.78 4.45-4.15-14.24-13.78c-4.25-4.11-7.8-12.44-7.74-18.2v-1.16c.07-7.33-4.12-17.17-9.52-22.4l-1.38-1.34a16.2 16.2 0 0 0 -22.05-.2l-31.08 29q4 .28 7.89.95z"/><path d="m199.34 126.23.11-11.85a54.35 54.35 0 0 0 -19.77 7.35l8.78 8.5a41.15 41.15 0 0 1 10.88-4z"/><path d="m165 135.31a48.6 48.6 0 0 0 -8.28 18.57l12.5.12a36.75 36.75 0 0 1 4.54-10.21z"/><path d="m208.34 238.67c43.27.41 78.67-32.57 79.06-73.67s-34.4-74.74-77.66-75.14-78.67 32.57-79.06 73.66 34.38 74.74 77.66 75.15zm-63.1-68.41 26.52.25a34.6 34.6 0 0 0 5.89 13.29l-19.16 17.85a58.65 58.65 0 0 1 -13.25-31.39zm55.93 54.41a65.26 65.26 0 0 1 -32.74-13.32l19.35-18a38.44 38.44 0 0 0 13.64 5.29zm14.24.19.25-26.25a38.32 38.32 0 0 0 13.34-5.14l19.46 18.84a65.45 65.45 0 0 1 -33.05 12.55zm43.25-22-19.46-18.86a34.55 34.55 0 0 0 5.8-12.47l27.68.27a58.73 58.73 0 0 1 -14.02 31.07zm14.18-44.6-27.45-.26a34.12 34.12 0 0 0 -5.18-13.08l19.38-18.05a58.65 58.65 0 0 1 13.25 31.4zm-42.35-23.26a38.23 38.23 0 0 0 -13.82-6l.24-25.21a65.35 65.35 0 0 1 32.74 13.32zm3.18 28.74c-.13 13-11.29 23.37-24.95 23.24s-24.62-10.74-24.49-23.7 11.29-23.37 24.94-23.25 24.62 10.79 24.5 23.75zm-31-60.11-.23 25a38.38 38.38 0 0 0 -14.44 5.37l-18.35-17.75a65.38 65.38 0 0 1 33.01-12.58zm-43.24 22 18.35 17.76a34.38 34.38 0 0 0 -6 13.56l-26.32-.25a58.76 58.76 0 0 1 13.96-31.04z"/><path d="m248 155.07 12.48.12a48.49 48.49 0 0 0 -7.34-18.12l-9 8.37a36.7 36.7 0 0 1 3.86 9.63z"/><path d="m199.49 110.19v-3.15a61.44 61.44 0 0 0 -7.16 1.49l-7.84 7.31a57.55 57.55 0 0 1 13.37-4.16z"/><path d="m230.12 131.22 8.89-8.28a54.15 54.15 0 0 0 -19.08-8.08l-.12 11.93a40.66 40.66 0 0 1 10.31 4.43z"/><ellipse cx="209.56" cy="163.55" rx="11.1" ry="11.69" transform="matrix(.00942464 -.99995559 .99995559 .00942464 44.04 371.56)"/><path d="m764.64 466.81-15.7-35.12a6 6 0 0 0 -7.8-3l-24.89 10.6a5.9 5.9 0 0 0 -3.16 3.2 5.75 5.75 0 0 0 .09 4.46l7.6 17h-9.88l.1-5.08a5.79 5.79 0 0 0 -3.31-5.33 6 6 0 0 0 -6.33.68l-33.77 26.48a5.75 5.75 0 0 0 0 9.08l33.77 26.47a6 6 0 0 0 3.71 1.28 6.12 6.12 0 0 0 2.63-.6 5.82 5.82 0 0 0 3.3-5.34l-.09-4.06h29.21a18.82 18.82 0 0 0 18-13.29l6.7-22.73a5.74 5.74 0 0 0 .28-1.72v-.62a5.72 5.72 0 0 0 -.46-2.36zm-24.2-25.14 10 22.29h-16.7l-7.3-16.33zm6.32 49.33a6.93 6.93 0 0 1 -6.64 4.89h-35.27a6 6 0 0 0 -4.24 1.75 5.73 5.73 0 0 0 -1.34 2.07l-18.47-14.46 18.2-14.25a5.8 5.8 0 0 0 1.57 2.9 6 6 0 0 0 4.24 1.74h46.46z"/><path d="m679.87 395.4-4.4 2.68a5.76 5.76 0 0 0 -2.76 5.62 5.83 5.83 0 0 0 4 4.83l41 13.33a6 6 0 0 0 5.1-.64 5.79 5.79 0 0 0 2.67-4.3l4.28-42.17a5.76 5.76 0 0 0 -2.87-5.57 6 6 0 0 0 -6.38.19l-3.42 2.28-15.91-24a19 19 0 0 0 -21.2-7.58l-22.98 6.87a6.18 6.18 0 0 0 -1.59.69l-.54.34a5.9 5.9 0 0 0 -1.73 1.68l-21.52 32a5.74 5.74 0 0 0 1.68 8l22.63 14.69a6 6 0 0 0 4.46.84 5.89 5.89 0 0 0 3.77-2.49l10.42-15.51zm-22.44-3.88-12.73-8.26 13.66-20.32 9.07 13.69zm26.08-40.33a7 7 0 0 1 7.8 2.79l19.21 29a5.91 5.91 0 0 0 3.8 2.53 6 6 0 0 0 2.5 0l-2.34 23.07-22.16-7.2a5.81 5.81 0 0 0 1.62-2.87 5.73 5.73 0 0 0 -.82-4.43l-25.3-38.18z"/><path d="m650.14 465.23-20.8-.09 4.66-10.33 5.37 2.46a6.06 6.06 0 0 0 6.32-.81 5.76 5.76 0 0 0 1.93-5.95l-11.76-43.69a5.85 5.85 0 0 0 -3.34-3.83 6 6 0 0 0 -5.14.16l-40.92 20.85a5.77 5.77 0 0 0 .45 10.53l4.45 1.82-12.78 28.26a19.06 19.06 0 0 0 5.33 22.52l19.73 16.22a5.66 5.66 0 0 0 1.41.9l.11.05.62.27a5.91 5.91 0 0 0 2.38.5l41.72.18a5.87 5.87 0 0 0 5.93-5.77l.21-28.35a5.74 5.74 0 0 0 -1.71-4.13 6 6 0 0 0 -4.17-1.77zm-44.81 24.29-13.79-11.34a7.54 7.54 0 0 1 -2.11-8.9l15.24-33.69a5.7 5.7 0 0 0 .09-4.51 6 6 0 0 0 -1.81-2.4l23.33-11.87 6.65 24.71a6 6 0 0 0 -4 .06 5.93 5.93 0 0 0 -3.34 3.09zm38.69 4-27.48-.11 7.55-16.69 20 .09z"/><path d="m364.75 397.83a1.42 1.42 0 0 1 .19.41 72.44 72.44 0 0 1 25.23-25.13 2.55 2.55 0 0 1 -.9-.28l-19.66-13.75a1.23 1.23 0 0 0 -1.52.14l-16.53 17.14a1.33 1.33 0 0 0 -.13 1.57z"/><path d="m425.85 363.32a69.93 69.93 0 0 1 17.28 2.17 1.59 1.59 0 0 1 -.56-1.08l-4.5-24.2a1.57 1.57 0 0 0 -1.25-.71l-23.34.07a1.32 1.32 0 0 0 -1.24 1l-4.35 24.23a2.42 2.42 0 0 1 -.67 1.06 69.53 69.53 0 0 1 18.63-2.54z"/><path d="m489.81 436c0-36.17-28.87-65.37-64.1-65.37s-64.1 29.2-64.1 65.37c0 24.36 13.82 47.14 34.82 58a3.32 3.32 0 0 0 4.56-1.86l10.22-28.48a3.46 3.46 0 0 0 -1.38-4.13 28.29 28.29 0 0 1 -12.57-23.92c0-15.95 12.84-28.91 28.45-28.91s28.46 13 28.46 28.91a28.29 28.29 0 0 1 -12.57 23.92 3.46 3.46 0 0 0 -1.38 4.13l10.22 28.48a3.31 3.31 0 0 0 4.56 1.86c21-10.91 34.81-33.41 34.81-58z"/><path d="m486 397 13.11-19.84a1.35 1.35 0 0 0 -.14-1.57l-16.64-17a1.22 1.22 0 0 0 -1.52-.14l-19.57 13.87a1.78 1.78 0 0 1 -.64.24 72.31 72.31 0 0 1 25.4 24.44z"/><path d="m487.09 473a72.5 72.5 0 0 1 -23.88 24.87.81.81 0 0 1 .21.1l18 12.62a1.23 1.23 0 0 0 1.52-.15l16.53-17.14a1.33 1.33 0 0 0 .13-1.57z"/><path d="m356.64 453.16a73 73 0 0 1 -2.07-17.16 73.92 73.92 0 0 1 2.3-18.35.8.8 0 0 1 -.21 0l-22.66 4.48a1.38 1.38 0 0 0 -1 1.29l.07 24.07a1.36 1.36 0 0 0 1 1.28l22.12 4.2a1.43 1.43 0 0 1 .45.19z"/><path d="m518 422.28a2.38 2.38 0 0 0 -1.25-1l-22.11-4.23a74 74 0 0 1 2.46 18.9 73 73 0 0 1 -1.78 16l21.79-4.28a1.35 1.35 0 0 0 1-1.28z"/><path d="m364.67 473a2.67 2.67 0 0 1 -.24.74l-12.51 19a1.32 1.32 0 0 0 .15 1.56l16.63 17a1.22 1.22 0 0 0 1.52.14l17.92-12.73a1.7 1.7 0 0 1 1.65 0l8 4.39a.88.88 0 0 0 1.07-.14 71.13 71.13 0 0 1 -34.19-29.96z"/><path d="m1299.39 563.06-24.28-9.92-15.52-33.24 15.26 21.16v-13.74c0-11-8.53-20-19-20h-8.13c-10.53 0-19.06 8.94-19.06 20v70l-7.42 83.93a11.74 11.74 0 0 0 10.25 12.94 9.69 9.69 0 0 0 1.07 0 11.56 11.56 0 0 0 11.28-10.8l6.38-72h3.21l6.37 72a11.57 11.57 0 0 0 11.29 10.8 9.51 9.51 0 0 0 1.06 0 11.75 11.75 0 0 0 10.26-12.94l-7.51-84.81v-13.61l-12.9-5.23-2.44-1a11.59 11.59 0 0 1 -6.68-7.8l-10.34-40.29 17.14 36.81a9.62 9.62 0 0 0 5.07 4.88l27.72 11.32a9.1 9.1 0 0 0 3.44.69 9.47 9.47 0 0 0 8.81-6.32 10.05 10.05 0 0 0 -5.33-12.83z"/><path d="m1251.74 502.9c12.21 0 22.12-10.37 22.12-23.18s-9.91-23.18-22.12-23.18-22.14 10.37-22.14 23.18 9.91 23.18 22.14 23.18z"/><path d="m1352.55 616.23a6.67 6.67 0 0 0 -5-2.29h-49.55a6.67 6.67 0 0 0 -5 2.29 7.35 7.35 0 0 0 -1.76 5.41l5.28 65.44a6.93 6.93 0 0 0 6.76 6.51h39a6.92 6.92 0 0 0 6.76-6.51l5.28-65.44a7.35 7.35 0 0 0 -1.77-5.41z"/><path d="m1312.72 603.21a5.35 5.35 0 0 0 6.74.47l7.63-5.35a5.8 5.8 0 0 0 2.26-3.3l1-3.66a6.11 6.11 0 0 0 -.65-4.64 5.59 5.59 0 0 0 -3.72-2.61l-8.35-1.56a5.4 5.4 0 0 0 -5.44 2.29l-4.58 6.57a6 6 0 0 0 .81 7.78z"/><path d="m115.46 595.82v1a6.29 6.29 0 0 0 6.59 6.16l6.6-.12a6.62 6.62 0 0 0 6.6-6.42v-1c21.55-4.81 37.43-23.35 37.46-44.79 0-24.85-21.15-44.67-47.23-44.17s-47.32 21.12-47.36 46c-.03 21.41 15.81 39.35 37.34 43.34zm0-19.63a25.81 25.81 0 0 1 -17.56-24.12c0-14.45 12.37-26.44 27.53-26.72s27.49 11.23 27.47 25.68c0 10.87-7.23 20.73-17.64 24.78v-6.91a20.33 20.33 0 0 0 11-17.75c0-11-9.35-19.73-20.87-19.51s-20.85 9.36-20.87 20.36a19.34 19.34 0 0 0 11 17.32zm13.17 20.37-6.59.13v-25.41a22.51 22.51 0 0 0 3.3.19 21.2 21.2 0 0 0 3.3-.32c.05 2.05.02 24.57.01 25.41zm-3.25-31.38c-7.89.15-14.29-5.84-14.28-13.36s6.43-13.75 14.32-13.9 14.29 5.85 14.28 13.36-6.42 13.72-14.3 13.9zm.07-52.41c22.44-.43 40.67 16.62 40.64 38 0 17.78-13 33.59-30.85 38.2v-6.52c14.32-4.43 24.22-17.23 24.24-31.56 0-17.91-15.25-32.2-34-31.84s-34.13 15.23-34.16 33.15c0 14.31 9.84 26.75 24.16 30.63v6.53c-17.8-3.94-30.77-19.25-30.75-37 .02-21.42 18.27-39.17 40.74-39.59z"/><path d="m125.37 566.8a5.81 5.81 0 0 0 -5.57 5.89v80.31a17.15 17.15 0 0 1 -17.11 17.18h-28.83a17.15 17.15 0 0 1 -17.11-17.18v-18.18a28 28 0 0 0 22.25-27.49v-19a7.39 7.39 0 0 0 -7.38-7.41h-.37s0 0 0 0v-20.63a5.7 5.7 0 0 0 -5.69-5.71h-29a5.7 5.7 0 0 0 -5.69 5.71v20.6h-.37a7.39 7.39 0 0 0 -7.38 7.41v19a28 28 0 0 0 22.28 27.49v18.21a28.5 28.5 0 0 0 28.44 28.56h28.83a28.51 28.51 0 0 0 28.47-28.56v-80.51a5.69 5.69 0 0 0 -5.77-5.69zm-75.91 29.14h17.22v14.39h-17.22z"/><path d="m689.05 700.19v-40.19h-89.66v40.19h-35.08v147.35h159.83v-147.35zm-78-26.79h66.27v26.79h-66.23zm101.39 160.74h-136.44v-75.91h29.23c-.24.38-.49.77-.77 1.19a27.55 27.55 0 0 0 0 31.85c1.76 2.69 2.73 4.17 2.73 7.89s-1 5.21-2.73 7.89a26.22 26.22 0 0 0 -5.07 15.95h11.7c0-3.72 1-5.2 2.73-7.89a27.59 27.59 0 0 0 0-31.85c-1.76-2.69-2.73-4.17-2.73-7.89s1-5.2 2.73-7.89a28 28 0 0 0 4.31-9.23h10.49c-.24.38-.49.77-.77 1.19a27.55 27.55 0 0 0 0 31.85c1.76 2.69 2.73 4.17 2.73 7.89s-1 5.21-2.73 7.89a26.22 26.22 0 0 0 -5.07 15.93h11.7c0-3.72 1-5.2 2.72-7.89a27.55 27.55 0 0 0 0-31.85c-1.76-2.69-2.72-4.17-2.72-7.89s1-5.2 2.72-7.89a27.81 27.81 0 0 0 4.32-9.23h10.48l-.77 1.19a27.55 27.55 0 0 0 0 31.85c1.77 2.71 2.77 4.15 2.77 7.87s-1 5.2-2.73 7.89a26.22 26.22 0 0 0 -5.1 15.95h11.69c0-3.72 1-5.2 2.73-7.89a27.55 27.55 0 0 0 0-31.85c-1.76-2.69-2.73-4.17-2.73-7.89s1-5.2 2.73-7.89a27.81 27.81 0 0 0 4.32-9.23h10.48c-.23.38-.49.77-.76 1.19a27.55 27.55 0 0 0 0 31.85c1.76 2.69 2.72 4.17 2.72 7.89s-1 5.2-2.72 7.89a26.22 26.22 0 0 0 -5.07 15.93h11.69c0-3.72 1-5.2 2.73-7.89a27.55 27.55 0 0 0 0-31.85c-1.76-2.69-2.73-4.17-2.73-7.89s1-5.2 2.73-7.89a27.81 27.81 0 0 0 4.32-9.23h24.14v75.91zm0-89.3h-136.44v-31.26h136.44z"/><ellipse cx="687.51" cy="716.6" rx="10.43" ry="10.79"/><ellipse cx="724.02" cy="716.6" rx="10.43" ry="10.79"/><g font-family="AmericanTypewriter-Semibold, American Typewriter" font-size="36" font-weight="600"><text transform="translate(383.77 557.3)">open</text><text transform="translate(604.13 565.58)">circular</text><text transform="translate(869.31 565.58)">local</text><text transform="translate(574.6 241.64)">production</text><text transform="translate(0 729.64)">ext<tspan letter-spacing=".02em" x="56.34" y="0">r</tspan><tspan letter-spacing="0em" x="74.77" y="0">usion</tspan></text><text transform="translate(554.12 895.64)">shredding</text><text transform="translate(1140.79 294.73)">object</text><text transform="translate(1219.56 750.4)">so<tspan letter-spacing=".02em" x="37.37" y="0">r</tspan><tspan x="55.73" y="0">ting</tspan></text><text transform="translate(146.73 279.98)">testing</text></g><path d="m994.1 81.12-19.4-34.59a2.24 2.24 0 0 0 -3-.88 2.06 2.06 0 0 0 -.87 2.86l19.45 34.59a2.25 2.25 0 0 0 3 .88 2.06 2.06 0 0 0 .82-2.86z"/><path d="m971 40-1-1.75a2.24 2.24 0 0 0 -3-.88 2.06 2.06 0 0 0 -.87 2.86l1 1.75a2.21 2.21 0 0 0 1.42 1.07 2.25 2.25 0 0 0 1.54-.19 2.06 2.06 0 0 0 .91-2.86z"/><path d="m1003.46 83.36-33.89-60.36a2.23 2.23 0 0 0 -1.42-1.07l-27.85-6.7a2.18 2.18 0 0 0 -2.23.75 2 2 0 0 0 -.17 2.29l33 58.74-56 37.5a2.07 2.07 0 0 0 -.88 2.12 2.2 2.2 0 0 0 1.65 1.68l27.85 6.69a2.2 2.2 0 0 0 1.75-.3l57.53-38.57a2.05 2.05 0 0 0 .66-2.77zm-59.91 37.27-22.15-5.29 53.6-35.9a2.06 2.06 0 0 0 .65-2.74l-31.58-56.23 22.14 5.29 32.49 57.9z"/><path d="m1291.85 385.3 22.33-32.78a2.24 2.24 0 0 0 -.53-3 2.06 2.06 0 0 0 -2.94.5l-22.33 32.78a2.19 2.19 0 0 0 -.32 1.75 2.15 2.15 0 0 0 .85 1.29 2.05 2.05 0 0 0 2.94-.54z"/><path d="m1318.39 346.35 1.13-1.67a2.24 2.24 0 0 0 -.53-3 2.07 2.07 0 0 0 -3 .5l-1.13 1.66a2.24 2.24 0 0 0 -.32 1.75 2.26 2.26 0 0 0 .85 1.3 2.07 2.07 0 0 0 3-.54z"/><path d="m1294 394.67 39-57.24a2.24 2.24 0 0 0 .32-1.75l-6.45-27.9a2.17 2.17 0 0 0 -1.66-1.66 2.06 2.06 0 0 0 -2.13.87l-37.92 55.66-58.49-33.39a2 2 0 0 0 -2.29.16 2.19 2.19 0 0 0 -.77 2.22l6.45 27.9a2.22 2.22 0 0 0 1 1.43l60.16 34.34a2.07 2.07 0 0 0 2.78-.64zm-60.06-37-5.13-22.18 56 32a2.06 2.06 0 0 0 2.74-.63l36.3-53.29 5.12 22.19-37.37 54.87z"/><path d="m986.13 751.92 34.47 19.62a2.25 2.25 0 0 0 3-.78 2.06 2.06 0 0 0 -.74-2.89l-34.47-19.62a2.25 2.25 0 0 0 -3 .78 2.05 2.05 0 0 0 .74 2.89z"/><path d="m1027.1 775.23 1.75 1a2.24 2.24 0 0 0 3-.77 2.07 2.07 0 0 0 -.74-2.9l-1.74-1a2.21 2.21 0 0 0 -1.77-.18 2.18 2.18 0 0 0 -1.23 1 2.06 2.06 0 0 0 .73 2.85z"/><path d="m977 754.83 60.2 34.26a2.23 2.23 0 0 0 1.77.18l27.28-8.67a2.17 2.17 0 0 0 1.52-1.79 2.07 2.07 0 0 0 -1-2.06l-58.54-33.31 28.58-61a2.06 2.06 0 0 0 -.34-2.27 2.19 2.19 0 0 0 -2.28-.59l-27.29 8.67a2.25 2.25 0 0 0 -1.34 1.17l-29.38 62.72a2 2 0 0 0 .82 2.69zm32.05-62.83 21.71-6.89-27.36 58.38a2.07 2.07 0 0 0 .85 2.68l56 31.89-21.7 6.9-57.7-32.84z"/><path d="m330.8 743.08 13.2 37.39a2.25 2.25 0 0 0 2.77 1.37 2.07 2.07 0 0 0 1.34-2.67l-13.23-37.39a2.24 2.24 0 0 0 -2.77-1.37 2.07 2.07 0 0 0 -1.31 2.67z"/><path d="m346.52 787.51.68 1.9a2.23 2.23 0 0 0 2.76 1.37 2.05 2.05 0 0 0 1.34-2.67l-.67-1.89a2.24 2.24 0 0 0 -1.22-1.3 2.28 2.28 0 0 0 -1.55-.08 2.07 2.07 0 0 0 -1.34 2.67z"/><path d="m322 739.28 23.1 65.3a2.24 2.24 0 0 0 1.22 1.29l26.31 11.3a2.18 2.18 0 0 0 2.32-.36 2.07 2.07 0 0 0 .56-2.23l-22.51-63.49 61.52-27.42a2.08 2.08 0 0 0 1.23-1.94 2.21 2.21 0 0 0 -1.34-1.94l-26.31-11.3a2.25 2.25 0 0 0 -1.78 0l-63.26 28.2a2 2 0 0 0 -1.06 2.59zm65.38-26.52 20.93 9-58.93 26.24a2.06 2.06 0 0 0 -1.11 2.58l21.51 60.79-20.92-9-22.15-62.59z"/><path d="m151.77 340.21-38.06 11.15a2.25 2.25 0 0 0 -1.53 2.69 2.08 2.08 0 0 0 2.6 1.49l38.06-11.15a2.23 2.23 0 0 0 1.36-1.15 2.21 2.21 0 0 0 .16-1.54 2.06 2.06 0 0 0 -2.59-1.49z"/><path d="m106.54 353.47-1.93.56a2.25 2.25 0 0 0 -1.53 2.69 2.06 2.06 0 0 0 2.59 1.48l1.93-.56a2.25 2.25 0 0 0 1.53-2.69 2.06 2.06 0 0 0 -2.59-1.48z"/><path d="m156.05 331.6-66.47 19.47a2.25 2.25 0 0 0 -1.36 1.15l-12.73 25.64a2.18 2.18 0 0 0 .23 2.35 2 2 0 0 0 2.19.68l64.64-18.89 24 62.94a2 2 0 0 0 1.87 1.33 2.18 2.18 0 0 0 2-1.23l12.74-25.64a2.25 2.25 0 0 0 .09-1.78l-24.68-64.72a2 2 0 0 0 -2.52-1.3zm22.88 66.75-10.13 20.39-23-60.24a2 2 0 0 0 -2.51-1.25l-61.85 18.12 10.12-20.37 63.72-18.67z"/><path d="m444.57 80.67-32.63-22.55a2.23 2.23 0 0 0 -3.05.51 2.06 2.06 0 0 0 .48 2.94l32.63 22.56a2.24 2.24 0 0 0 3.05-.51 2.07 2.07 0 0 0 -.48-2.95z"/><path d="m405.8 53.87-1.66-1.15a2.25 2.25 0 0 0 -3.05.51 2.07 2.07 0 0 0 .48 3l1.66 1.14a2.18 2.18 0 0 0 1.74.34 2.27 2.27 0 0 0 1.31-.84 2.07 2.07 0 0 0 -.48-3z"/><path d="m454 78.57-57-39.39a2.29 2.29 0 0 0 -1.75-.33l-27.96 6.25a2.2 2.2 0 0 0 -1.67 1.66 2 2 0 0 0 .85 2.13l55.4 38.3-33.79 58.26a2 2 0 0 0 .14 2.29 2.2 2.2 0 0 0 2.22.79l27.94-6.26a2.18 2.18 0 0 0 1.43-1l34.76-59.92a2.06 2.06 0 0 0 -.57-2.78zm-37.45 59.8-22.22 5 32.35-55.77a2.07 2.07 0 0 0 -.62-2.75l-53.06-36.69 22.22-5 54.61 37.75z"/><path d="m1264.27 131.29-70.76-37.93a4 4 0 0 0 -3.73 0l-70.78 37.93a3.43 3.43 0 0 0 -1.86 3v75.85a3.44 3.44 0 0 0 1.86 3l70.76 37.92a3.94 3.94 0 0 0 3.73 0l70.76-37.92a3.45 3.45 0 0 0 1.87-3v-75.85a3.46 3.46 0 0 0 -1.85-3zm-5.61 71.71-2.41-1.29a3.89 3.89 0 0 0 -5.1 1.27 3.33 3.33 0 0 0 1.37 4.73l3.44 1.85-60.58 32.48v-65.39h.14a3.8 3.8 0 0 0 3.24-1.73 3.27 3.27 0 0 0 .35-2.71l59.55-31.92zm-126.52 0a3.89 3.89 0 0 0 -5.1-1.27l-2.41 1.29v-62.72l59.55 31.92a3.27 3.27 0 0 0 .35 2.71 3.8 3.8 0 0 0 3.24 1.73h.14v65.41l-60.58-32.47 3.44-1.85a3.33 3.33 0 0 0 1.37-4.73zm59.51-95.69a3.6 3.6 0 0 0 3.73-3.47v-1.48l59.55 31.92-59.63 32a3.8 3.8 0 0 0 -7.31 0l-59.63-32 59.55-31.92v1.48a3.61 3.61 0 0 0 3.74 3.48z"/><path d="m1219.76 190.18 6.66 3.58a4 4 0 0 0 1.86.46 3.8 3.8 0 0 0 3.24-1.73 3.34 3.34 0 0 0 -1.37-4.74l-6.66-3.57a3.89 3.89 0 0 0 -5.1 1.27 3.33 3.33 0 0 0 1.37 4.73z"/><path d="m1203.38 181.4 6.62 3.6a3.89 3.89 0 0 0 1.86.47 3.8 3.8 0 0 0 3.24-1.73 3.34 3.34 0 0 0 -1.37-4.74l-6.66-3.57a3.89 3.89 0 0 0 -5.1 1.27 3.33 3.33 0 0 0 1.37 4.73z"/><path d="m1236.14 199 6.66 3.58a4 4 0 0 0 1.86.46 3.8 3.8 0 0 0 3.24-1.73 3.34 3.34 0 0 0 -1.37-4.74l-6.66-3.57a3.89 3.89 0 0 0 -5.1 1.27 3.33 3.33 0 0 0 1.37 4.73z"/><path d="m1171.39 185.44a4 4 0 0 0 1.86-.46l6.66-3.58a3.33 3.33 0 0 0 1.37-4.73 3.89 3.89 0 0 0 -5.1-1.27l-6.66 3.57a3.34 3.34 0 0 0 -1.37 4.74 3.8 3.8 0 0 0 3.24 1.73z"/><path d="m1138.63 203a4 4 0 0 0 1.86-.46l6.66-3.58a3.33 3.33 0 0 0 1.37-4.73 3.89 3.89 0 0 0 -5.1-1.27l-6.66 3.57a3.34 3.34 0 0 0 -1.37 4.74 3.8 3.8 0 0 0 3.24 1.73z"/><path d="m1155 194.22a4 4 0 0 0 1.86-.46l6.66-3.58a3.33 3.33 0 0 0 1.37-4.73 3.89 3.89 0 0 0 -5.1-1.27l-6.66 3.57a3.34 3.34 0 0 0 -1.37 4.74 3.8 3.8 0 0 0 3.24 1.73z"/><path d="m1187.91 121.41a3.75 3.75 0 0 0 7.47 0v-7.14a3.75 3.75 0 0 0 -7.47 0z"/><path d="m1191.65 128.36a3.61 3.61 0 0 0 -3.74 3.47v7.17a3.75 3.75 0 0 0 7.47 0v-7.14a3.6 3.6 0 0 0 -3.73-3.5z"/><path d="m1191.65 145.92a3.61 3.61 0 0 0 -3.74 3.47v7.14a3.75 3.75 0 0 0 7.47 0v-7.14a3.6 3.6 0 0 0 -3.73-3.47z"/><path d="m988 506.2-24.6-99.56a4.74 4.74 0 0 0 -4.51-3.73h-18.1c3.52-10.09 5.24-17.49 5.24-22.5 0-22-16.56-39.87-36.91-39.87s-36.92 17.88-36.92 39.87c0 5 1.73 12.41 5.24 22.5h-18.1a4.75 4.75 0 0 0 -4.51 3.73l-24.57 99.56c-.79 3.2 1.44 6.34 4.5 6.34h148.71c3.06 0 5.29-3.14 4.53-6.34zm-78.88-155.59c15.21 0 27.58 13.37 27.58 29.8 0 14.31-21.44 59.35-27.58 71.95-6.13-12.58-27.59-57.64-27.59-71.95 0-16.41 12.37-29.8 27.59-29.8zm-4.12 114.85a4.51 4.51 0 0 0 8.2-.06c4.19-8.27 10.47-21.39 15.43-32.51h11.48l11.42 49.66h-84.86l11.43-49.66h11.47c4.92 11.03 11.56 24.91 15.43 32.57zm-64.2 37 22.12-89.46h18.26c1.27 3.22 2.66 6.61 4 9.84h-10.73a4.73 4.73 0 0 0 -4.52 3.82l-13.75 59.73a5 5 0 0 0 4.53 6.25h96.82c3 0 5.25-3.08 4.52-6.25l-13.75-59.75a4.73 4.73 0 0 0 -4.52-3.82h-10.78c1.32-3.12 2.71-6.5 4-9.84h18.26l22.09 89.49z"/><path d="m927.91 380.41c0-11.2-8.43-20.3-18.79-20.3s-18.8 9.1-18.8 20.3 8.43 20.3 18.8 20.3 18.79-9.11 18.79-20.3zm-28.26 0c0-5.64 4.24-10.23 9.47-10.23s9.47 4.59 9.47 10.23-4.25 10.23-9.47 10.23-9.47-4.59-9.47-10.23z"/></svg>